<svg width="34" height="24" viewBox="0 0 34 24" fill="none" xmlns="http://www.w3.org/2000/svg">
<path d="M1.8886 10.3119H28.1716L22.7986 4.82191C22.5013 4.50715 22.337 4.0859 22.3414 3.6489C22.3457 3.21189 22.5182 2.7941 22.8217 2.48551C23.1252 2.17692 23.5354 2.00223 23.9641 1.99907C24.3927 1.9959 24.8054 2.16451 25.1132 2.46858L33.2699 10.8019C33.5749 11.1143 33.7461 11.537 33.7461 11.9777C33.7461 12.4185 33.5749 12.8412 33.2699 13.1536L25.1116 21.5302C24.8059 21.8439 24.3906 22.0208 23.957 22.0223C23.5234 22.0237 23.107 21.8494 22.7994 21.5377C22.4918 21.2261 22.3183 20.8027 22.3169 20.3606C22.3155 19.9184 22.4864 19.4939 22.7921 19.1803L28.1863 13.6452H1.8886C1.45507 13.6452 1.03931 13.4697 0.732758 13.1571C0.426205 12.8445 0.253986 12.4206 0.253986 11.9786C0.253986 11.5366 0.426205 11.1126 0.732758 10.8001C1.03931 10.4875 1.45507 10.3119 1.8886 10.3119Z" fill="#339BEB"/>
</svg>
