<svg width="34" height="24" viewBox="0 0 34 24" fill="none" xmlns="http://www.w3.org/2000/svg">
<path d="M1.8886 10.3129H28.1716L22.7986 4.82289C22.5013 4.50813 22.337 4.08688 22.3414 3.64987C22.3457 3.21287 22.5182 2.79508 22.8217 2.48649C23.1252 2.1779 23.5354 2.00321 23.9641 2.00004C24.3927 1.99688 24.8054 2.16549 25.1132 2.46956L33.2699 10.8029C33.5749 11.1152 33.7461 11.538 33.7461 11.9787C33.7461 12.4194 33.5749 12.8422 33.2699 13.1546L25.1116 21.5312C24.8059 21.8448 24.3906 22.0218 23.957 22.0232C23.5234 22.0246 23.107 21.8504 22.7994 21.5387C22.4918 21.2271 22.3183 20.8036 22.3169 20.3615C22.3155 19.9194 22.4864 19.4948 22.7921 19.1812L28.1863 13.6462H1.8886C1.45507 13.6462 1.03931 13.4706 0.732758 13.1581C0.426205 12.8455 0.253986 12.4216 0.253986 11.9796C0.253986 11.5375 0.426205 11.1136 0.732758 10.801C1.03931 10.4885 1.45507 10.3129 1.8886 10.3129Z" fill="#607D8B"/>
</svg>
