<svg width="34" height="24" viewBox="0 0 34 24" fill="none" xmlns="http://www.w3.org/2000/svg">
<path d="M32.1114 10.3119H5.82842L11.2014 4.82191C11.4987 4.50715 11.663 4.0859 11.6586 3.6489C11.6543 3.21189 11.4818 2.7941 11.1783 2.48551C10.8748 2.17692 10.4646 2.00223 10.0359 1.99907C9.60733 1.9959 9.19465 2.16451 8.88678 2.46858L0.730053 10.8019C0.425107 11.1143 0.253906 11.537 0.253906 11.9777C0.253906 12.4185 0.425107 12.8412 0.730053 13.1536L8.88842 21.5302C9.19405 21.8439 9.60936 22.0208 10.043 22.0223C10.4766 22.0237 10.893 21.8494 11.2006 21.5377C11.5082 21.2261 11.6817 20.8027 11.6831 20.3606C11.6845 19.9184 11.5136 19.4939 11.2079 19.1803L5.81371 13.6452H32.1114C32.5449 13.6452 32.9607 13.4697 33.2672 13.1571C33.5738 12.8445 33.746 12.4206 33.746 11.9786C33.746 11.5366 33.5738 11.1126 33.2672 10.8001C32.9607 10.4875 32.5449 10.3119 32.1114 10.3119Z" fill="#607D8B"/>
</svg>
